<svg width="640" height="160" viewBox="0 0 640 160" fill="none" xmlns="http://www.w3.org/2000/svg" role="img" aria-label="SSH Ache">
  <defs>
    <linearGradient id="wm-bg" x1="28" y1="20" x2="228" y2="236" gradientUnits="userSpaceOnUse">
      <stop stop-color="#ff8a63"/>
      <stop offset="0.55" stop-color="#ff5f6d"/>
      <stop offset="1" stop-color="#ff3d7f"/>
    </linearGradient>
    <linearGradient id="wm-heart" x1="64" y1="48" x2="192" y2="200" gradientUnits="userSpaceOnUse">
      <stop stop-color="#fff7f2"/>
      <stop offset="1" stop-color="#ffe1d4"/>
    </linearGradient>
    <linearGradient id="wm-text" x1="190" y1="40" x2="600" y2="130" gradientUnits="userSpaceOnUse">
      <stop stop-color="#ff8a63"/>
      <stop offset="1" stop-color="#ff3d7f"/>
    </linearGradient>
    <clipPath id="wm-clip">
      <path d="M88 116 C81.5 104 66.5 93.7 55.7 83 C44.8 72.3 40 61.3 40 50.5 C40 38.5 49.7 28 61.7 28 C73.7 28 82.7 36.5 88 47.3 C93.3 36.5 102.7 28 114.3 28 C126.3 28 136 38.5 136 50.5 C136 61.3 131.2 72.3 120.3 83 C109.5 93.7 95.3 104 88 116 Z"/>
    </clipPath>
  </defs>

  <g>
    <rect x="20" y="20" width="136" height="136" rx="34" fill="url(#wm-bg)"/>
    <rect x="20" y="20" width="136" height="136" rx="34" fill="#ffffff" opacity="0.06"/>
    <path d="M88 116 C81.5 104 66.5 93.7 55.7 83 C44.8 72.3 40 61.3 40 50.5 C40 38.5 49.7 28 61.7 28 C73.7 28 82.7 36.5 88 47.3 C93.3 36.5 102.7 28 114.3 28 C126.3 28 136 38.5 136 50.5 C136 61.3 131.2 72.3 120.3 83 C109.5 93.7 95.3 104 88 116 Z" fill="url(#wm-heart)"/>
    <g clip-path="url(#wm-clip)">
      <path d="M36 71 H66 l7 -21 l9 43 l8 -29 l5 8 H132" stroke="#ff9d7e" stroke-width="6.5" stroke-linejoin="round" stroke-linecap="round" fill="none"/>
    </g>
  </g>

  <text x="188" y="102" font-family="'JetBrains Mono', ui-monospace, SFMono-Regular, Menlo, monospace" font-size="62" font-weight="700" letter-spacing="-1">
    <tspan fill="#e9e9ee">SSH</tspan><tspan fill="url(#wm-text)"> Ache</tspan>
  </text>
</svg>
